<svg xmlns="http://www.w3.org/2000/svg" viewBox="0 0 107.373 107.373" style="enable-background:new 0 0 107.373 107.373" xml:space="preserve"><path style="fill:#fea500" d="M106.317 37.463a3.58 3.58 0 0 0-5.071 0L70.013 68.692 26.104 88.029l-6.764-6.768 19.344-43.905L69.909 6.123a3.58 3.58 0 0 0 0-5.071 3.58 3.58 0 0 0-5.071 0L32.657 33.226.004 107.373 74.14 74.716l32.177-32.181a3.582 3.582 0 0 0 0-5.072z"/><path style="fill:#fea500" d="M60.815 62.265a3.597 3.597 0 0 0 5.074 0l30.07-30.07a3.58 3.58 0 0 0 0-5.075 3.58 3.58 0 0 0-5.075 0l-30.07 30.07a3.594 3.594 0 0 0 .001 5.075zM52.967 54.413a3.59 3.59 0 0 0 5.074 0l30.073-30.07a3.586 3.586 0 0 0 0-5.075 3.58 3.58 0 0 0-5.075 0l-30.073 30.07a3.587 3.587 0 0 0 .001 5.075zM45.115 46.561a3.59 3.59 0 0 0 5.074 0l30.073-30.07a3.586 3.586 0 0 0 0-5.075 3.58 3.58 0 0 0-5.075 0l-30.073 30.07a3.594 3.594 0 0 0 .001 5.075z"/></svg>